<?xml version="1.0" encoding="UTF-8"?>
<svg id="Ebene_1" data-name="Ebene 1" xmlns="http://www.w3.org/2000/svg" width="9.32" height="17" viewBox="0 0 9.32 17">
  <path d="M6.82,0c-.64,0-1.23.2-1.71.54-.18.19-.33.41-.45.65-.12-.24-.27-.45-.45-.65-.48-.34-1.07-.54-1.71-.54H0v1h2.5c.83,0,1.5.67,1.5,1.5v12c0,.83-.67,1.5-1.5,1.5H0v1h2.34c.85,0,1.62-.36,2.16-.93,0,0,0,0,0,0,.06-.08.1-.17.15-.27.15.3.35.58.59.81,0,0,0,0-.01,0,.42.23.9.38,1.42.38h2.5v-1h-2.5c-.83,0-1.5-.67-1.5-1.5V2.5c0-.83.67-1.5,1.5-1.5h2.66V0h-2.5Z" fill="#fff"/>
</svg>